#!OML:ASF X:\für Bonn\!DataBase\2005_08_11_Bastian_Final\c3d\Bastian.ASF
:FULLY-SPECIFIED
:DEGREES
76
root -1.3635 7.70851 1.82957 160.67 -1.22894 -173.714
lowerback 35.84 0.590259 2.27726
upperback 7.44361 -0.888126 1.15513
thorax -9.62189 -1.55668 0.561835
lowerneck -11.0549 -7.86837 -4.69019
upperneck -9.40534 -8.32047 13.4379
head -0.167144 -3.46363 4.51638
rclavicle -5.96354e-016 -1.94809e-014
rhumerus 75.5092 10.9935 24.4228
rradius 41.8143
rwrist -78.0099
rhand -50.9046 -8.41945
rfingers 7.12502
rthumb -23.4571 -37.0095
lclavicle -5.96354e-016 -1.94809e-014
lhumerus 72.9729 -14.1327 -40.4526
lradius 34.2093
lwrist 38.2431
lhand -46.2807 23.8225
lfingers 7.12502
lthumb -19.0157 52.913
rfemur -49.1297 -22.4742 27.2869
rtibia 148.567
rfoot -51.0948 -12.47
rtoes -8.77495
lfemur -44.3683 35.3786 6.71513
ltibia 152.487
lfoot -55.4081 -21.1844
ltoes -15.2521
77
root -1.36277 7.66649 1.83717 160.59 -1.27015 -173.759
lowerback 36.0854 0.619456 2.2397
upperback 7.48529 -0.893726 1.16666
thorax -9.66461 -1.57352 0.602518
lowerneck -11.1783 -7.85534 -4.65803
upperneck -9.36896 -8.30309 13.4062
head -0.142219 -3.44841 4.49847
rclavicle -1.53064e-014 1.19271e-015
rhumerus 75.5485 11.0207 24.7414
rradius 41.9698
rwrist -78.5444
rhand -51.0541 -8.19115
rfingers 7.12502
rthumb -23.6005 -36.7628
lclavicle -1.53064e-014 1.19271e-015
lhumerus 73.0837 -14.352 -40.1659
lradius 33.9542
lwrist 37.5203
lhand -46.1534 24.1416
lfingers 7.12502
lthumb -18.8932 53.244
rfemur -49.2893 -22.7019 27.3694
rtibia 148.947
rfoot -51.1299 -13.0875
rtoes -9.51669
lfemur -44.3405 35.8002 6.90616
ltibia 152.822
lfoot -55.5562 -21.0522
ltoes -15.3967
78
root -1.36177 7.64678 1.84531 160.532 -1.30489 -173.807
lowerback 36.2997 0.657598 2.20527
upperback 7.52856 -0.885652 1.17745
thorax -9.69359 -1.58311 0.634511
lowerneck -11.2467 -7.84758 -4.63915
upperneck -9.40465 -8.28016 13.3996
head -0.14533 -3.43178 4.49362
rclavicle 1.78906e-015 -3.97569e-016
rhumerus 75.5762 11.1259 24.8081
rradius 42.0158
rwrist -78.7565
rhand -51.133 -8.05237
rfingers 7.12502
rthumb -23.6762 -36.6143
lclavicle 1.78906e-015 -3.97569e-016
lhumerus 73.2052 -14.6017 -39.7027
lradius 33.6589
lwrist 36.6156
lhand -45.9333 24.3445
lfingers 7.12502
lthumb -18.6815 53.4674
rfemur -49.441 -22.6565 27.5055
rtibia 149.143
rfoot -51.0784 -13.5709
rtoes -9.92172
lfemur -44.378 35.886 6.84674
ltibia 152.954
lfoot -55.5832 -20.9488
ltoes -15.5118
79
root -1.36034 7.64765 1.85465 160.499 -1.36267 -173.846
lowerback 36.4812 0.681008 2.16478
upperback 7.57921 -0.897586 1.20704
thorax -9.70204 -1.60192 0.69661
lowerneck -11.3737 -7.83885 -4.6549
upperneck -9.402 -8.25646 13.3887
head -0.126839 -3.41118 4.49065
rclavicle 9.93923e-016 -1.98785e-014
rhumerus 75.6676 11.2446 24.7471
rradius 41.9731
rwrist -78.7503
rhand -51.1366 -8.01478
rfingers 7.12502
rthumb -23.6796 -36.5763
lclavicle 9.93923e-016 -1.98785e-014
lhumerus 73.3251 -14.9002 -39.3519
lradius 33.3956
lwrist 35.9369
lhand -45.7371 24.4203
lfingers 7.12502
lthumb -18.4928 53.5613
rfemur -49.588 -22.4315 27.6979
rtibia 149.165
rfoot -50.9417 -13.9973
rtoes -10.3563
lfemur -44.5772 35.6243 6.4964
ltibia 152.916
lfoot -55.4389 -20.7749
ltoes -15.7063
80
root -1.35846 7.66975 1.86401 160.49 -1.41991 -173.874
lowerback 36.5984 0.701363 2.14688
upperback 7.65436 -0.909789 1.23229
thorax -9.6595 -1.62193 0.740146
lowerneck -11.5074 -7.83667 -4.67429
upperneck -9.41263 -8.23662 13.3946
head -0.109729 -3.39118 4.49324
rclavicle -9.93923e-016 -1.15295e-014
rhumerus 75.7425 11.3916 24.4953
rradius 41.8608
rwrist -78.4761
rhand -51.0947 -8.07208
rfingers 7.12502
rthumb -23.6395 -36.6387
lclavicle -9.93923e-016 -1.15295e-014
lhumerus 73.4712 -15.1963 -39.1815
lradius 33.2157
lwrist 35.5369
lhand -45.5681 24.3948
lfingers 7.12502
lthumb -18.3303 53.5511
rfemur -49.7084 -22.0256 27.9336
rtibia 149.011
rfoot -50.715 -14.4318
rtoes -10.9369
lfemur -44.9025 34.9936 5.90219
ltibia 152.702
lfoot -55.1531 -20.6276
ltoes -15.8142
81
root -1.35548 7.71019 1.87414 160.482 -1.49819 -173.924
lowerback 36.7024 0.727867 2.11043
upperback 7.73942 -0.924229 1.24696
thorax -9.60132 -1.64308 0.782452
lowerneck -11.6381 -7.83817 -4.67904
upperneck -9.43354 -8.22066 13.4014
head -0.0964161 -3.37317 4.49392
rclavicle 5.76476e-015 -3.97569e-015
rhumerus 75.8117 11.5681 24.1804
rradius 41.7003
rwrist -78.0423
rhand -51.0284 -8.22876
rfingers 7.12502
rthumb -23.5759 -36.8036
lclavicle 5.76476e-015 -3.97569e-015
lhumerus 73.6668 -15.5099 -39.4944
lradius 33.2873
lwrist 35.7467
lhand -45.5672 24.3649
lfingers 7.12502
lthumb -18.3294 53.5213
rfemur -49.7579 -21.5472 28.0876
rtibia 148.705
rfoot -50.4655 -14.6178
rtoes -11.1837
lfemur -45.1883 34.2216 5.20555
ltibia 152.315
lfoot -54.7552 -20.5694
ltoes -15.7243
82
root -1.35316 7.76762 1.88545 160.524 -1.58751 -173.937
lowerback 36.7679 0.728932 2.1198
upperback 7.82123 -0.950352 1.2579
thorax -9.53266 -1.66827 0.800134
lowerneck -11.7916 -7.83621 -4.65186
upperneck -9.45092 -8.20198 13.3919
head -0.0812554 -3.35318 4.48406
rclavicle -3.18055e-015 3.97569e-015
rhumerus 75.8634 11.7597 23.7383
rradius 41.4856
rwrist -77.3321
rhand -50.9042 -8.4748
rfingers 7.12502
rthumb -23.4567 -37.0649
lclavicle -3.18055e-015 3.97569e-015
lhumerus 73.894 -15.812 -40.1743
lradius 33.5082
lwrist 36.3723
lhand -45.6543 24.3863
lfingers 7.12502
lthumb -18.4131 53.5348
rfemur -49.8282 -20.9459 28.3082
rtibia 148.252
rfoot -50.1041 -14.8176
rtoes -11.352
lfemur -45.6113 33.3231 4.39958
ltibia 151.805
lfoot -54.226 -20.5035
ltoes -15.7772
83
root -1.35018 7.84499 1.89828 160.629 -1.6785 -173.954
lowerback 36.7956 0.73326 2.09786
upperback 7.88974 -0.974722 1.29182
thorax -9.46546 -1.68937 0.857155
lowerneck -11.8988 -7.83628 -4.71552
upperneck -9.50661 -8.17125 13.4412
head -0.0778252 -3.32658 4.50922
rclavicle 2.5842e-015 -3.97569e-016
rhumerus 75.9532 11.9385 23.3636
rradius 41.2732
rwrist -76.6377
rhand -50.8139 -8.6381
rfingers 7.12502
rthumb -23.37 -37.2393
lclavicle 2.5842e-015 -3.97569e-016
lhumerus 74.0966 -16.1122 -40.6951
lradius 33.68
lwrist 36.9381
lhand -45.7686 24.3196
lfingers 7.12502
lthumb -18.5231 53.4577
rfemur -49.9627 -20.1688 28.5838
rtibia 147.64
rfoot -49.6354 -15.0001
rtoes -11.7443
lfemur -46.1319 32.2142 3.3997
ltibia 151.138
lfoot -53.6137 -20.3185
ltoes -15.9848
84
root -1.34699 7.94155 1.91425 160.762 -1.7871 -173.958
lowerback 36.847 0.723347 2.09984
upperback 7.94291 -1.00523 1.31146
thorax -9.42381 -1.71196 0.889596
lowerneck -11.9469 -7.82765 -4.71099
upperneck -9.60725 -8.13298 13.4529
head -0.102804 -3.30149 4.51507
rclavicle 1.17283e-014 1.39149e-014
rhumerus 76.0011 12.0785 23.0179
rradius 41.0796
rwrist -75.9959
rhand -50.7014 -8.74215
rfingers 7.12502
rthumb -23.2622 -37.357
lclavicle 1.17283e-014 1.39149e-014
lhumerus 74.277 -16.3734 -40.6762
lradius 33.5923
lwrist 36.9192
lhand -45.6809 24.0723
lfingers 7.12502
lthumb -18.4388 53.2184
rfemur -50.0733 -19.2865 28.8757
rtibia 146.869
rfoot -49.063 -15.1668
rtoes -11.9937
lfemur -46.732 30.7096 2.22397
ltibia 150.322
lfoot -52.9206 -20.1383
ltoes -16.0003
